HIERARCHY
ROOT Hips
{
    OFFSET 0.000000 0.000000 0.000000
    CHANNELS 6 Xposition Yposition Zposition Zrotation Xrotation Yrotation
    JOINT Spine
    {
        OFFSET -0.000000 8.104110 0.000000
        CHANNELS 3 Zrotation Xrotation Yrotation
        JOINT Spine1
        {
            OFFSET -0.000000 22.417536 0.000000
            CHANNELS 3 Zrotation Xrotation Yrotation
            JOINT Neck
            {
                OFFSET -0.000000 22.325472 2.029588
                CHANNELS 3 Zrotation Xrotation Yrotation
                JOINT Head
                {
                    OFFSET -0.000000 13.836284 -1.976612
                    CHANNELS 3 Zrotation Xrotation Yrotation
                    End Site
                    {
                        OFFSET -0.000000 24.707651 0.000000
                    }
                }
            }
            JOINT LeftShoulder
            {
                OFFSET 3.973640 20.379602 -0.279950
                CHANNELS 3 Zrotation Xrotation Yrotation
                JOINT LeftArm
                {
                    OFFSET 11.493720 0.000000 0.000000
                    CHANNELS 3 Zrotation Xrotation Yrotation
                    JOINT LeftForeArm
                    {
                        OFFSET 31.336695 0.000000 0.000000
                        CHANNELS 3 Zrotation Xrotation Yrotation
                        JOINT LeftHand
                        {
                            OFFSET 29.043781 0.000000 0.000000
                            CHANNELS 3 Zrotation Xrotation Yrotation
                            End Site
                            {
                                OFFSET 14.824592 0.000000 0.000000
                            }
                        }
                    }
                }
            }
            JOINT RightShoulder
            {
                OFFSET -3.921018 20.379602 -0.279950
                CHANNELS 3 Zrotation Xrotation Yrotation
                JOINT RightArm
                {
                    OFFSET -11.493720 0.000000 0.000000
                    CHANNELS 3 Zrotation Xrotation Yrotation
                    JOINT RightForeArm
                    {
                        OFFSET -31.336695 0.000000 0.000000
                        CHANNELS 3 Zrotation Xrotation Yrotation
                        JOINT RightHand
                        {
                            OFFSET -29.043781 0.000000 0.000000
                            CHANNELS 3 Zrotation Xrotation Yrotation
                            End Site
                            {
                                OFFSET -14.824592 0.000000 0.000000
                            }
                        }
                    }
                }
            }
        }
    }
    JOINT LeftUpLeg
    {
        OFFSET 9.883060 0.000000 0.000000
        CHANNELS 3 Zrotation Xrotation Yrotation
        JOINT LeftLeg
        {
            OFFSET -0.000000 -43.587502 0.000000
            CHANNELS 3 Zrotation Xrotation Yrotation
            JOINT LeftFoot
            {
                OFFSET -0.000000 -41.501083 0.000000
                CHANNELS 3 Zrotation Xrotation Yrotation
                JOINT LeftToeBase
                {
                    OFFSET -0.000000 -6.423989 14.824592
                    CHANNELS 3 Zrotation Xrotation Yrotation
                    End Site
                    {
                        OFFSET -0.000000 0.000000 3.953224
                    }
                }
            }
        }
    }
    JOINT RightUpLeg
    {
        OFFSET -9.883060 0.000000 0.000000
        CHANNELS 3 Zrotation Xrotation Yrotation
        JOINT RightLeg
        {
            OFFSET -0.000000 -43.587502 0.000000
            CHANNELS 3 Zrotation Xrotation Yrotation
            JOINT RightFoot
            {
                OFFSET -0.000000 -41.501083 0.000000
                CHANNELS 3 Zrotation Xrotation Yrotation
                JOINT RightToeBase
                {
                    OFFSET -0.000000 -6.423989 14.824592
                    CHANNELS 3 Zrotation Xrotation Yrotation
                    End Site
                    {
                        OFFSET -0.000000 0.000000 3.953224
                    }
                }
            }
        }
    }
}
MOTION
Frames:    4
Frame Time:    0.008333
-14.457453    96.282707    -43.752560    -14.468945    4.122852    114.154442    2.741377    -13.220387    -3.974087    1.844619    23.937765    -4.683018    16.016357    19.281666    24.027206    -28.415768    19.044765    26.600765    6.092727    -1.991878    -18.143099    -25.812860    17.552490    -54.498768    42.218212    -20.276749    -49.572807    54.546211    4.918215    9.647141    -7.283525    2.837768    1.277251    7.912721    6.431896    16.179363    -36.326996    -36.821754    53.234898    -31.514076    -24.017086    14.485929    8.714296    -16.963181    6.218848    -2.293054    11.794169    15.141485    -11.333748    14.706692    16.795961    0.000000    0.000000    0.000000    -26.877178    -24.073090    -1.988918    6.907712    31.054747    10.119963    18.492958    -5.651690    -14.863162    0.000000    0.000000    0.000000    
-14.363752    95.618866    -44.012653    -14.461620    4.263610    114.077721    2.557401    -13.094432    -3.947257    1.955562    23.726364    -4.651755    16.067701    19.455996    23.779642    -27.652903    18.832579    26.278460    6.045673    -1.533347    -18.548941    -26.304365    16.371628    -53.213707    42.882172    -18.881496    -48.624275    55.165230    6.212838    9.369504    -7.491474    2.792940    0.638960    8.366770    5.375712    14.487276    -35.436531    -36.583920    53.096882    -32.830673    -24.327961    14.128382    9.496404    -16.753723    5.721663    -2.183053    11.218303    15.796253    -10.548170    15.309789    16.787167    0.000000    0.000000    0.000000    -26.682924    -23.343412    -1.570204    7.072356    30.433607    8.154253    15.711399    -6.871405    -12.954244    0.000000    0.000000    0.000000    
-14.252153    94.901779    -44.315536    -14.311131    4.512563    114.022476    2.381789    -12.910361    -3.940028    2.136812    23.642807    -4.656932    16.119007    19.695368    23.474052    -27.414364    18.678604    25.942827    5.812067    -1.295126    -18.927456    -26.760719    15.314347    -51.624176    43.213081    -17.689396    -47.989151    55.792267    7.210963    9.027369    -7.938468    2.750655    -0.004072    8.892065    4.519860    12.864451    -34.606419    -36.549789    52.804047    -33.255314    -24.857645    14.073312    10.198863    -16.453808    5.575150    -2.022843    10.874509    16.352280    -10.020594    16.299150    16.438454    0.000000    0.000000    0.000000    -26.615574    -22.435783    -1.144078    7.464472    29.650761    5.328830    12.874778    -8.609216    -10.813559    0.000000    0.000000    0.000000    
-14.174342    94.152122    -44.629948    -14.245928    4.829653    114.087494    2.209157    -12.868352    -3.974303    2.062721    23.842394    -4.659091    16.573788    19.444870    23.206030    -27.666031    19.012886    25.727345    6.150216    -1.255216    -18.859583    -27.594507    14.162444    -50.394218    43.354534    -16.276699    -47.574696    56.496246    8.294312    8.423086    -8.340897    2.579937    -0.744766    9.364337    3.808233    11.437957    -33.758842    -36.511242    52.316879    -34.188698    -25.387911    13.587219    10.739975    -16.399345    5.639696    -1.916813    10.938958    16.478636    -10.505182    16.597736    16.829611    0.000000    0.000000    0.000000    -26.807875    -21.713175    -1.143594    7.752096    29.312235    3.912141    10.754680    -10.863210    -10.603897    0.000000    0.000000    0.000000    
